<svg width="439" height="98" viewBox="0 0 439 98" fill="none" xmlns="http://www.w3.org/2000/svg">
<path d="M5.8335 53.6165C5.8335 65.6771 14.5443 71.163 24.5343 71.163H45.4903V25.467H27.2178V53.0096H25.9385C24.1059 53.0096 24.1059 51.4209 24.1059 49.3503V25.467H5.8335V53.6165Z" fill="#3A5BA0"/>
<path d="M66.9377 71.163C73.453 71.163 80.7061 68.4201 80.7061 59.8283C80.7061 51.6054 70.835 48.0116 70.835 45.2091C70.835 43.8109 72.1738 43.8109 76.2554 43.8109H79.1829V25.467H57.977C51.7652 25.467 46.4043 28.8823 46.4043 35.463C46.4043 43.7454 56.8227 48.3745 56.8227 51.1175C56.8227 52.9441 54.6272 52.8846 52.1936 52.8846H46.4043V71.163H66.9377Z" fill="#3A5BA0"/>
<path d="M81.6155 48.3145C81.6155 62.5112 91.6115 71.1625 105.38 71.1625C119.148 71.1625 126.217 71.1625 126.217 71.1625V52.8841C126.217 52.8841 107.147 52.8841 105.38 52.8841C102.089 52.8841 99.9534 52.0333 99.9534 50.1412H127.127C130.298 36.5573 122.498 24.5562 105.439 24.5562C91.3021 24.5562 81.6155 34.4867 81.6155 48.3145ZM105.38 40.52C107.998 40.52 110.068 41.7338 111.104 43.7449H99.7094C100.685 41.7338 102.756 40.52 105.38 40.52Z" fill="#3A5BA0"/>
<path d="M129.383 71.163H147.655V47.2797C147.655 45.2091 147.655 43.6264 149.488 43.6264H155.212V25.467H148.084C138.094 25.467 129.383 30.9529 129.383 43.0136V71.163Z" fill="#3A5BA0"/>
<path d="M239.276 71.1625C240.74 71.1625 241.531 71.1625 241.894 71.1625C241.894 71.1625 242.686 71.1625 241.894 71.1625L241.954 52.8841C241.954 52.8841 241.043 52.8841 239.276 52.8841C236.17 52.8841 234.1 51.1169 234.1 47.9515C234.1 44.7802 236.17 43.013 239.276 43.013C241.043 43.013 241.954 43.013 241.954 43.013L241.894 25.407C241.894 25.407 243.477 25.4665 239.276 25.4665C225.139 25.407 215.518 34.4867 215.518 48.3145C215.518 62.0233 225.139 71.1625 239.276 71.1625Z" fill="#FF9F29"/>
<path d="M243.78 48.3145C243.78 62.5112 253.776 71.1625 267.544 71.1625C281.313 71.1625 288.381 71.1625 288.381 71.1625V52.8841C288.381 52.8841 269.311 52.8841 267.544 52.8841C264.254 52.8841 262.118 52.0333 262.118 50.1412H289.291C292.463 36.5573 284.662 24.5562 267.604 24.5562C253.467 24.5562 243.78 34.4867 243.78 48.3145ZM267.544 40.52C270.162 40.52 272.233 41.7338 273.268 43.7449H261.874C262.85 41.7338 264.92 40.52 267.544 40.52Z" fill="#FF9F29"/>
<path d="M291.548 25.467V71.163H309.82V43.6264H311.099C312.932 43.6264 312.932 45.2091 312.932 47.2797V71.163H331.204V43.0136C331.204 30.9529 322.494 25.467 312.504 25.467H291.548Z" fill="#FF9F29"/>
<path d="M333.035 16.3335V53.6162C333.035 65.6768 341.746 71.1627 351.736 71.1627H357.156V53.0688L354.235 53.0093C352.587 53.0093 351.189 51.9085 351.189 49.9629V43.7451H357.222V25.4667H351.129V16.3335H333.035Z" fill="#FF9F29"/>
<path d="M358.74 48.3145C358.74 62.5112 368.736 71.1625 382.505 71.1625C396.273 71.1625 403.341 71.1625 403.341 71.1625V52.8841C403.341 52.8841 384.272 52.8841 382.505 52.8841C379.214 52.8841 377.078 52.0333 377.078 50.1412H404.252C407.423 36.5573 399.623 24.5562 382.564 24.5562C368.427 24.5562 358.74 34.4867 358.74 48.3145ZM382.505 40.52C385.123 40.52 387.193 41.7338 388.228 43.7449H376.834C377.81 41.7338 379.881 40.52 382.505 40.52Z" fill="#FF9F29"/>
<path d="M406.507 71.163H424.78V47.2797C424.78 45.2091 424.78 43.6264 426.612 43.6264H432.336V25.467H425.208C415.218 25.467 406.507 30.9529 406.507 43.0136V71.163Z" fill="#FF9F29"/>
<path d="M185.317 34.2764C177.433 34.2764 171.037 40.6726 171.037 48.5564C171.037 56.4461 177.433 62.8364 185.317 62.8364C193.206 62.8364 199.597 56.4461 199.597 48.5564C199.597 40.6726 193.206 34.2764 185.317 34.2764Z" fill="#1F4690"/>
</svg>
