<svg width="426" height="280" viewBox="0" fill="none" xmlns="http://www.w3.org/2000/svg">
<path d="M59.1375 65.4129C59.1375 74.4077 65.634 78.4991 73.0845 78.4991H88.7134V44.4191H75.0858V64.9603H74.1318C72.765 64.9603 72.765 63.7754 72.765 62.2312V44.4191H59.1375V65.4129Z" fill="#3A5BA0"/>
<path d="M104.709 78.4991C109.568 78.4991 114.977 76.4534 114.977 70.0456C114.977 63.913 107.616 61.2328 107.616 59.1427C107.616 58.0999 108.614 58.0999 111.658 58.0999H113.841V44.4191H98.0262C93.3935 44.4191 89.3953 46.9662 89.3953 51.8741C89.3953 58.0511 97.1653 61.5034 97.1653 63.5491C97.1653 64.9114 95.5279 64.8671 93.713 64.8671H89.3953V78.4991H104.709Z" fill="#3A5BA0"/>
<path d="M115.656 61.4592C115.656 72.047 123.111 78.4992 133.379 78.4992C143.647 78.4992 148.919 78.4992 148.919 78.4992V64.8672C148.919 64.8672 134.697 64.8672 133.379 64.8672C130.925 64.8672 129.332 64.2326 129.332 62.8215H149.598C151.963 52.6907 146.146 43.7402 133.423 43.7402C122.88 43.7402 115.656 51.1464 115.656 61.4592ZM133.379 55.646C135.331 55.646 136.876 56.5513 137.648 58.0512H129.15C129.878 56.5513 131.422 55.646 133.379 55.646Z" fill="#3A5BA0"/>
<path d="M151.28 78.4991H164.908V60.6869C164.908 59.1427 164.908 57.9623 166.275 57.9623H170.543V44.4191H165.227C157.777 44.4191 151.28 48.5104 151.28 57.5053V78.4991Z" fill="#3A5BA0"/>
<path d="M233.238 78.499C234.33 78.499 234.92 78.499 235.191 78.499C235.191 78.499 235.781 78.499 235.191 78.499L235.235 64.867C235.235 64.867 234.556 64.867 233.238 64.867C230.922 64.867 229.378 63.5491 229.378 61.1883C229.378 58.8231 230.922 57.5052 233.238 57.5052C234.556 57.5052 235.235 57.5052 235.235 57.5052L235.191 44.3746C235.191 44.3746 236.371 44.419 233.238 44.419C222.695 44.3746 215.52 51.1463 215.52 61.459C215.52 71.683 222.695 78.499 233.238 78.499Z" fill="#FF9F29"/>
<path d="M236.598 61.4592C236.598 72.047 244.053 78.4992 254.321 78.4992C264.59 78.4992 269.861 78.4992 269.861 78.4992V64.8672C269.861 64.8672 255.639 64.8672 254.321 64.8672C251.867 64.8672 250.274 64.2326 250.274 62.8215H270.54C272.906 52.6907 267.088 43.7402 254.366 43.7402C243.822 43.7402 236.598 51.1464 236.598 61.4592ZM254.321 55.646C256.274 55.646 257.818 56.5513 258.59 58.0512H250.092C250.82 56.5513 252.364 55.646 254.321 55.646Z" fill="#FF9F29"/>
<path d="M272.223 44.4191V78.4991H285.85V57.9623H286.804C288.171 57.9623 288.171 59.1427 288.171 60.6869V78.4991H301.799V57.5053C301.799 48.5104 295.302 44.4191 287.852 44.4191H272.223Z" fill="#FF9F29"/>
<path d="M303.164 37.6074V65.4128C303.164 74.4076 309.661 78.499 317.111 78.499H321.154V65.0045L318.975 64.9602C317.746 64.9602 316.703 64.1392 316.703 62.6882V58.051H321.203V44.419H316.659V37.6074H303.164Z" fill="#FF9F29"/>
<path d="M322.335 61.4592C322.335 72.047 329.79 78.4992 340.058 78.4992C350.326 78.4992 355.598 78.4992 355.598 78.4992V64.8672C355.598 64.8672 341.376 64.8672 340.058 64.8672C337.604 64.8672 336.011 64.2326 336.011 62.8215H356.277C358.642 52.6907 352.825 43.7402 340.102 43.7402C329.559 43.7402 322.335 51.1464 322.335 61.4592ZM340.058 55.646C342.011 55.646 343.555 56.5513 344.327 58.0512H335.829C336.557 56.5513 338.101 55.646 340.058 55.646Z" fill="#FF9F29"/>
<path d="M357.959 78.4991H371.587V60.6869C371.587 59.1427 371.587 57.9623 372.954 57.9623H377.222V44.4191H371.906C364.456 44.4191 357.959 48.5104 357.959 57.5053V78.4991Z" fill="#FF9F29"/>
<path d="M192.996 50.9894C187.116 50.9894 182.346 55.7597 182.346 61.6394C182.346 67.5235 187.116 72.2894 192.996 72.2894C198.88 72.2894 203.646 67.5235 203.646 61.6394C203.646 55.7597 198.88 50.9894 192.996 50.9894Z" fill="#1F4690"/>
</svg>
